<svg width="145" height="184" viewBox="0 0 145 184" fill="none" xmlns="http://www.w3.org/2000/svg">
<circle cx="72.5" cy="94.5" r="72.5" fill="#18181B"/>
<path d="M12.6807 104.951V38.0811C12.6807 36.6846 13.1641 35.485 14.1309 34.4824C15.0977 33.4798 16.2793 32.9785 17.6758 32.9785H58.6572C80.3206 32.9785 91.1523 42.9688 91.1523 62.9492C91.1523 82.8939 80.3206 92.8662 58.6572 92.8662H32.9297V104.951C32.9297 106.348 32.4284 107.547 31.4258 108.55C30.459 109.517 29.2773 110 27.8809 110H17.7832C16.3867 110 15.1872 109.517 14.1846 108.55C13.182 107.547 12.6807 106.348 12.6807 104.951ZM32.9297 77.666H52.5342C58.5498 77.666 63.1152 76.6634 66.2305 74.6582C69.3457 72.6172 70.9033 68.7142 70.9033 62.9492C70.9033 57.1484 69.3457 53.2454 66.2305 51.2402C63.1152 49.1992 58.5498 48.1787 52.5342 48.1787H32.9297V77.666Z" fill="white"/>
<path d="M58.6807 148.844V81.9736C58.6807 80.5771 59.182 79.3955 60.1846 78.4287C61.1872 77.4619 62.3867 76.9785 63.7832 76.9785H125.712C127.108 76.9785 128.29 77.4798 129.257 78.4824C130.259 79.485 130.761 80.6846 130.761 82.0811V87.1299C130.761 88.5264 130.259 89.7259 129.257 90.7285C128.29 91.6953 127.108 92.1787 125.712 92.1787H78.9297V107.809H119.213C120.609 107.809 121.791 108.31 122.758 109.312C123.76 110.279 124.262 111.461 124.262 112.857V117.906C124.262 119.303 123.76 120.502 122.758 121.505C121.791 122.472 120.609 122.955 119.213 122.955H78.9297V138.8H125.604C126.965 138.8 128.129 139.283 129.096 140.25C130.062 141.217 130.546 142.398 130.546 143.795V148.951C130.546 150.348 130.045 151.547 129.042 152.55C128.039 153.517 126.84 154 125.443 154H63.7832C62.3867 154 61.1872 153.517 60.1846 152.55C59.182 151.547 58.6807 150.312 58.6807 148.844Z" fill="white"/>
</svg>
