<svg width="18" height="18" viewBox="0 0 18 18" fill="none" xmlns="http://www.w3.org/2000/svg">
<path d="M1 7H17V17H1V7Z" fill="#D9D9D9"/>
<path fill-rule="evenodd" clip-rule="evenodd" d="M2 16V7H0V18H18V7H16V16H2Z" fill="black"/>
<path d="M1 1.57992C9.87788 -0.554716 13.2835 -0.498374 17 1.57992C17.7182 1.62571 18.5 6.0791 14.5 8.57992C10.9994 10.7685 7.46036 10.7796 7 10.3069V17.5799H5V5.07992L1 1.57992Z" fill="black"/>
<path d="M7.5 6.50045V3.50045C7.5 3.50045 11 2.0009 14 3.50045C17 5 7.5 6.50045 7.5 6.50045Z" fill="#D9D9D9"/>
<path d="M8.5 4.5L7 3V7L8.5 4.5Z" fill="black"/>
</svg>
